<svg width="4477" height="2767" xmlns="http://www.w3.org/2000/svg" xmlns:xlink="http://www.w3.org/1999/xlink" xml:space="preserve" overflow="hidden"><defs><clipPath id="clip0"><rect x="-77" y="-340" width="4477" height="2767"/></clipPath><clipPath id="clip1"><rect x="0" y="48" width="4400" height="2379"/></clipPath><clipPath id="clip2"><rect x="0" y="48" width="4400" height="2379"/></clipPath><clipPath id="clip3"><rect x="0" y="48" width="4400" height="2379"/></clipPath><linearGradient x1="2192.58" y1="-1502.88" x2="-76.8697" y2="2355.68" gradientUnits="userSpaceOnUse" spreadMethod="pad" id="fill4"><stop offset="0" stop-color="#7F56D9"/><stop offset="0.394106" stop-color="#C091F3"/><stop offset="1" stop-color="#7F56D9"/></linearGradient><clipPath id="clip5"><rect x="-77" y="-340" width="2363" height="2568"/></clipPath><clipPath id="clip6"><rect x="-77" y="-340" width="2363" height="2568"/></clipPath><clipPath id="clip7"><rect x="-77" y="-340" width="2363" height="2568"/></clipPath><clipPath id="clip8"><rect x="-39" y="-46" width="1372" height="1540"/></clipPath><clipPath id="clip9"><rect x="-39" y="-46" width="1372" height="1540"/></clipPath><clipPath id="clip10"><rect x="-39" y="-46" width="1372" height="1540"/></clipPath><clipPath id="clip11"><rect x="7" y="0" width="935" height="1207"/></clipPath><clipPath id="clip12"><rect x="7" y="0" width="935" height="1207"/></clipPath><clipPath id="clip13"><rect x="7" y="0" width="935" height="1207"/></clipPath></defs><g clip-path="url(#clip0)" transform="translate(77 340)"><g clip-path="url(#clip1)"><g clip-path="url(#clip2)"><g clip-path="url(#clip3)"><path d="M-41.25-220 4400-220 4400 2376.63-41.25 2376.63Z" fill="url(#fill4)" transform="matrix(1 0 0 1.0001 0 48.0001)"/></g></g></g><g clip-path="url(#clip5)"><g clip-path="url(#clip6)"><g clip-path="url(#clip7)"><path d="M2359.95-845.311C2359.95 1038.95 803.123 2566.44-1117.32 2566.44-3037.77 2566.44-4594.6 1038.95-4594.6-845.311-4594.6-2729.57-3037.77-4257.06-1117.32-4257.06 803.123-4257.06 2359.95-2729.57 2359.95-845.311Z" fill="#FFFFFF" fill-opacity="0.050665" transform="matrix(1.00034 0 0 1 -77 -340)"/></g></g></g><g clip-path="url(#clip8)"><g clip-path="url(#clip9)"><g clip-path="url(#clip10)"><path d="M1370.35-704.405C1370.35 533.901 347.058 1537.75-915.233 1537.75-2177.52 1537.75-3200.81 533.901-3200.81-704.405-3200.81-1942.71-2177.52-2946.56-915.233-2946.56 347.058-2946.56 1370.35-1942.71 1370.35-704.405Z" fill="#FFFFFF" fill-opacity="0.0458287" transform="matrix(1 0 0 1.00004 -38.9998 -45)"/></g></g></g><g clip-path="url(#clip11)"><g clip-path="url(#clip12)"><g clip-path="url(#clip13)"><path d="M931.516-850.488C931.516 284.146-5.53253 1203.95-1161.44 1203.95-2317.35 1203.95-3254.4 284.146-3254.4-850.488-3254.4-1985.12-2317.35-2904.92-1161.44-2904.92-5.5326-2904.92 931.516-1985.12 931.516-850.488Z" fill="#FFFFFF" fill-opacity="0.0361096" transform="matrix(1.00089 0 0 1 7.9999 0)"/></g></g></g></g></svg>