<svg width="116" height="106" viewBox="0 0 116 106" fill="none" xmlns="http://www.w3.org/2000/svg">
<path d="M58 0C90.0325 0 116 25.9675 116 58C116 66.7409 114.065 75.0296 110.603 82.4629C96.9572 85.2208 80.3124 89.9637 69.2705 97.8408C55.5133 107.655 34.3779 105.433 20.8213 102.518C8.09545 91.8782 0 75.8848 0 58C0 25.9675 25.9675 0 58 0Z" fill="#E6E4FF"/>
<path d="M67.7778 28V37.7778M48.2222 28V37.7778M36 47.5556H80M40.8889 32.8889H75.1111C77.8112 32.8889 80 35.0777 80 37.7778V72C80 74.7001 77.8112 76.8889 75.1111 76.8889H40.8889C38.1888 76.8889 36 74.7001 36 72V37.7778C36 35.0777 38.1888 32.8889 40.8889 32.8889Z" stroke="#7F56D9" stroke-width="4.88889" stroke-linecap="round" stroke-linejoin="round"/>
<mask id="mask0_64_22652" style="mask-type:luminance" maskUnits="userSpaceOnUse" x="0" y="0" width="116" height="105">
<path d="M58 0C90.0325 0 116 25.9675 116 58C116 61.0795 115.76 64.1028 115.297 67.0524C113.723 77.0935 104.657 83.4324 94.9131 86.3223C85.5746 89.092 76.2903 92.833 69.2705 97.8408C57.9332 105.929 41.5851 105.842 28.5973 103.93C23.459 103.173 18.6141 100.889 15.1161 97.0504C5.72573 86.7444 0 73.041 0 58C0 25.9675 25.9675 0 58 0Z" fill="white"/>
</mask>
<g mask="url(#mask0_64_22652)">
</g>
</svg>
