<svg width="116" height="106" viewBox="0 0 116 106" fill="none" xmlns="http://www.w3.org/2000/svg">
<path d="M58 0C90.0325 0 116 25.9675 116 58C116 66.7409 114.065 75.0296 110.603 82.4629C96.9572 85.2208 80.3124 89.9637 69.2705 97.8408C55.5133 107.655 34.3779 105.433 20.8213 102.518C8.09545 91.8782 0 75.8848 0 58C0 25.9675 25.9675 0 58 0Z" fill="#E6E4FF"/>
<mask id="mask0_64_22682" style="mask-type:luminance" maskUnits="userSpaceOnUse" x="0" y="0" width="116" height="105">
<path d="M58 0C90.0325 0 116 25.9675 116 58C116 66.7409 114.065 75.0296 110.603 82.4629C96.9572 85.2208 80.3124 89.9637 69.2705 97.8408C55.5133 107.655 34.3779 105.433 20.8213 102.518C8.09545 91.8782 0 75.8848 0 58C0 25.9675 25.9675 0 58 0Z" fill="white"/>
</mask>
<g mask="url(#mask0_64_22682)">
</g>
<path d="M43.8811 33L45 28.3284C45 28.1462 44.8331 28 44.6216 28H38.3784C38.1716 28 38 28.1462 38 28.3284L39.1212 33C39.8499 32.7244 40.6562 32.5733 41.5 32.5733C42.3462 32.5757 43.1454 32.7244 43.8811 33H43.8811Z" fill="#7E12F1"/>
<path d="M62.5791 30.9775C73.931 28.0925 85.4654 34.9601 88.3467 46.3027C91.2183 57.6386 84.3568 69.1642 73.0029 72.0371L73.7529 75.0098L61.9395 78L60.2354 71.291L51.7021 37.6992L50 30.9902L61.8174 28L62.5791 30.9775ZM66.6426 71.8008L62.6357 72.8193C62.4064 72.8731 62.2871 73.164 62.3604 73.4492C62.4312 73.7442 62.6753 73.9369 62.9072 73.876L66.9141 72.8584C67.1411 72.8071 67.2607 72.5196 67.1875 72.2295C67.1118 71.9393 66.8672 71.7471 66.6426 71.8008ZM71.8291 65.2129C71.541 65.286 71.3487 65.5325 71.4121 65.7666L72.4248 69.7588C72.4785 69.9929 72.7622 70.1132 73.0576 70.04C73.3431 69.9717 73.5378 69.7228 73.4746 69.4961L72.4619 65.4932C72.4031 65.2666 72.1195 65.1422 71.8291 65.2129ZM63.4395 65.7471L60.8535 66.4014C60.7023 66.4406 60.6436 66.7085 60.7217 66.9961C60.7901 67.2887 60.9688 67.496 61.125 67.457L63.71 66.8037C63.8589 66.7696 63.9179 66.501 63.8398 66.2012C63.769 65.9208 63.5908 65.7106 63.4395 65.7471ZM80.0869 62.6895C79.9746 62.5773 79.7109 62.6551 79.501 62.8623C79.2839 63.0767 79.1958 63.33 79.3027 63.4424L81.1631 65.3545C81.2705 65.4618 81.5302 65.3821 81.75 65.1699C81.9672 64.9603 82.0594 64.7041 81.9473 64.5918L80.0869 62.6895ZM61.8037 59.3018L59.2051 59.9482C59.0613 59.9926 59.0001 60.256 59.0732 60.5459C59.1489 60.8381 59.3345 61.0424 59.4736 61.0039L62.0693 60.3506C62.2183 60.314 62.2769 60.048 62.2061 59.7529C62.1328 59.4629 61.9477 59.2606 61.8037 59.3018ZM75.4629 49.5586C74.3908 45.3252 70.0784 42.7621 65.8398 43.835L69.7363 59.1709C73.9678 58.0927 76.5348 53.7899 75.4629 49.5586ZM84.1475 55.2949C83.9961 55.2486 83.813 55.4535 83.7324 55.7363C83.6543 56.0289 83.7028 56.2972 83.8516 56.3389L86.418 57.0605C86.5644 57.1044 86.7475 56.9023 86.833 56.6172C86.9111 56.3272 86.865 56.0559 86.7139 56.0166L84.1475 55.2949ZM61.7275 52.4463L57.7207 53.4688C57.4865 53.5226 57.3672 53.8076 57.4404 54.0977C57.5113 54.3927 57.7627 54.5829 57.9873 54.5244L61.9912 53.5098C62.2207 53.4488 62.3506 53.1633 62.2725 52.873C62.1967 52.583 61.9497 52.3927 61.7275 52.4463ZM86.4766 46.2373L82.4746 47.2539C82.25 47.3124 82.126 47.5955 82.1992 47.8906C82.2749 48.1807 82.5186 48.3713 82.7432 48.3154L86.748 47.2979C86.9773 47.2415 87.1015 46.9517 87.0283 46.6641C86.9526 46.3714 86.7085 46.1861 86.4766 46.2373ZM58.5244 46.3955L55.9316 47.0498C55.7876 47.0912 55.7208 47.352 55.7988 47.6445C55.8769 47.9322 56.0532 48.1424 56.2021 48.1035L58.79 47.4473C58.939 47.4131 59 47.1418 58.9268 46.8516C58.8486 46.5642 58.6708 46.3568 58.5244 46.3955ZM56.8857 39.9434L54.2998 40.6016C54.1511 40.6409 54.0899 40.9019 54.1631 41.1943C54.2364 41.4893 54.4175 41.6914 54.5664 41.6572L57.1523 40.999C57.3011 40.9622 57.3671 40.6914 57.2891 40.4014C57.2158 40.1087 57.0347 39.9068 56.8857 39.9434ZM82.0742 37.9766C81.8643 37.7646 81.6098 37.6745 81.4951 37.7793L79.5859 39.6406C79.4765 39.7554 79.5573 40.0112 79.7646 40.2256C79.9722 40.4426 80.2334 40.535 80.3506 40.4229L82.2549 38.5625C82.3696 38.4528 82.2891 38.1912 82.0742 37.9766ZM64.2598 32.9902C64.2036 32.7587 63.9154 32.6312 63.6299 32.7041C63.3297 32.7797 63.1409 33.0262 63.1992 33.2578L64.2178 37.2549C64.2764 37.4866 64.56 37.6108 64.8506 37.5303C65.1434 37.4594 65.331 37.2135 65.2725 36.9844L64.2598 32.9902ZM73.5088 32.9023C73.2182 32.8194 72.9473 32.8727 72.9033 33.0215L72.1807 35.5869C72.1416 35.7307 72.3439 35.9161 72.627 35.999C72.9247 36.077 73.1888 36.0261 73.2256 35.8848L73.9551 33.3193C73.9966 33.1706 73.7968 32.9829 73.5088 32.9023ZM56.8105 33.0947L52.8037 34.1113C52.5742 34.165 52.4517 34.453 52.5225 34.7432C52.5981 35.0358 52.8447 35.2235 53.0742 35.1699L57.0811 34.1533C57.3032 34.0948 57.4282 33.8092 57.3574 33.5166C57.2842 33.2314 57.0351 33.0413 56.8105 33.0947Z" fill="#7E12F1"/>
<path d="M53.9449 69.6061L51.1321 60.0122L50.6107 58.2395L47.0182 46C46.0639 47.148 44.6408 47.9487 43 48.1489L45.277 55.9048L45.9611 58.2393L46.0711 58.6083L46.4849 60.012L49.6086 70.6672C49.8909 71.6247 50.9672 72.1915 52.0124 71.9406L52.3855 71.8466L52.5553 71.8056C53.3685 71.6078 53.9139 70.9808 54 70.2621L53.9449 69.6061Z" fill="#7E12F1"/>
<path d="M35.9761 46L32.3875 58.2391L31.866 60.0117L29.0574 69.6053L29 70.2613C29.0861 70.98 29.6388 71.607 30.4426 71.8048L30.6125 71.8458L30.9857 71.9398C32.0359 72.1931 33.1101 71.6239 33.3924 70.6665L36.5216 60.0116L36.9283 58.608L37.0383 58.239L37.7273 55.9045L40 48.1489C38.3636 47.9487 36.9378 47.148 35.9761 46.0001L35.9761 46Z" fill="#7E12F1"/>
<path d="M28 73C28 73 29.2034 74.1987 31 74.2335L29.2258 77L28 73Z" fill="#7E12F1"/>
<path d="M54 73C54 73 52.7961 74.1987 51 74.2335L52.7762 77L54 73Z" fill="#7E12F1"/>
<path d="M41.001 34C41.8454 34 42.6479 34.1737 43.3818 34.4912C45.5108 35.4108 46.9999 37.5302 47 39.9951C47 41.3616 46.5386 42.6134 45.7764 43.6201C44.8425 44.8593 43.4384 45.7173 41.832 45.9385C41.5591 45.9738 41.2809 46 41.001 46C40.7212 46 40.4391 45.9761 40.1758 45.9385C38.5645 45.7151 37.1623 44.8594 36.2236 43.6201C35.4567 42.6135 35 41.3569 35 39.9951C35.0001 37.5304 36.4889 35.4108 38.6201 34.4912C39.3517 34.1737 40.1565 34 41.001 34ZM41.001 43.3184C40.7117 43.3184 40.4766 43.538 40.4766 43.8037V44.8896C40.4766 45.1577 40.7117 45.3739 41.001 45.374C41.2856 45.374 41.5215 45.1554 41.5215 44.8896V43.8037C41.5215 43.5356 41.2856 43.3184 41.001 43.3184ZM44.0596 42.3193C43.869 42.1312 43.5509 42.143 43.3486 42.3477C43.1467 42.5522 43.1301 42.8672 43.3203 43.0576L44.0898 43.8291C44.278 44.0173 44.5957 44.0007 44.8027 43.8008C45.0026 43.6009 45.0172 43.2784 44.8291 43.0879L44.0596 42.3193ZM38.6514 42.3496C38.4515 42.138 38.129 42.129 37.9385 42.3193L37.1689 43.0879C36.9807 43.2784 36.995 43.5944 37.1973 43.8037C37.402 44.0034 37.7176 44.0125 37.9033 43.8291L38.6768 43.0557C38.8649 42.8652 38.8512 42.5448 38.6514 42.3496ZM41.001 37.5752C39.665 37.5753 38.5802 38.657 38.5801 39.9951C38.5801 41.3357 39.6648 42.4198 41.001 42.4199C42.3301 42.4199 43.4195 41.3381 43.4219 39.9951C43.4217 38.6593 42.3324 37.5752 41.001 37.5752ZM44.8027 39.4756C44.5369 39.4756 44.3204 39.7108 44.3203 40C44.3203 40.2869 44.5393 40.5225 44.8027 40.5225H45.8945C46.1626 40.5176 46.3789 40.2869 46.3789 40C46.3788 39.7108 46.1602 39.4757 45.8945 39.4756H44.8027ZM36.1055 39.4736C35.8374 39.4737 35.6212 39.7084 35.6211 40C35.6211 40.2846 35.8424 40.5176 36.1035 40.5176H37.1973C37.4654 40.5175 37.6797 40.2822 37.6797 40C37.682 39.7084 37.4607 39.4737 37.1973 39.4736H36.1055Z" fill="#7E12F1"/>
</svg>
