<svg width="116" height="106" viewBox="0 0 116 106" fill="none" xmlns="http://www.w3.org/2000/svg">
<path d="M58 0C90.0325 0 116 25.9675 116 58C116 66.7409 114.065 75.0296 110.603 82.4629C96.9572 85.2208 80.3124 89.9637 69.2705 97.8408C55.5133 107.655 34.3779 105.433 20.8213 102.518C8.09545 91.8782 0 75.8848 0 58C0 25.9675 25.9675 0 58 0Z" fill="#E6E4FF"/>
<mask id="mask0_64_22678" style="mask-type:luminance" maskUnits="userSpaceOnUse" x="0" y="0" width="116" height="105">
<path d="M58 0C90.0325 0 116 25.9675 116 58C116 66.7409 114.065 75.0296 110.603 82.4629C96.9572 85.2208 80.3124 89.9637 69.2705 97.8408C55.5133 107.655 34.3779 105.433 20.8213 102.518C8.09545 91.8782 0 75.8848 0 58C0 25.9675 25.9675 0 58 0Z" fill="white"/>
</mask>
<g mask="url(#mask0_64_22678)">
</g>
<path d="M49.295 63H37.705C36.7625 63 36 63.8973 36 65C36 66.1055 36.765 67 37.705 67H49.295C50.2375 67 51 66.1027 51 65C51 63.8973 50.2398 63 49.295 63Z" fill="#7E12F1"/>
<path d="M49.3897 71H33.6103C32.7202 71 32 71.8945 32 73C32 74.1055 32.7225 75 33.6103 75H49.3897C50.2798 75 51 74.1027 51 73C51 71.8917 50.282 71 49.3897 71Z" fill="#7E12F1"/>
<path d="M83.9143 38.6829C84.2991 38.2151 84.2395 37.5192 83.7814 37.1282L80.5794 34.3981C80.1191 34.0071 79.4342 34.0676 79.0517 34.5354L75.355 39.011C72.2996 36.7418 68.6946 35.215 64.7731 34.6658L64.7708 30.6975H69.4914C70.0205 30.6975 70.4511 30.2623 70.4511 29.7223V25.9752C70.4511 25.4375 70.0228 25 69.4914 25L53.6759 25.0023C53.1468 25.0023 52.7162 25.4376 52.7162 25.9775V29.7247C52.7162 30.2623 53.1445 30.6998 53.6759 30.6998H58.3964V34.6518C54.5119 35.1894 50.8841 36.7022 47.7964 38.99L44.118 34.5377C43.7332 34.0698 43.0507 34.0093 42.5903 34.4003L39.3883 37.1304C38.9279 37.5214 38.8684 38.2173 39.2555 38.6851L43.211 43.4749C41.933 45.1227 40.845 46.9497 40.0136 48.9513C39.6036 49.9311 40.0548 51.0646 41.0237 51.4812C41.9925 51.9001 43.1034 51.437 43.5134 50.4548C46.5917 43.0607 53.6854 38.2823 61.587 38.2823C72.3998 38.2823 81.1998 47.2219 81.1998 58.2117C81.1998 69.1992 72.3998 78.1388 61.587 78.1388C58.4239 78.1388 55.4098 77.3987 52.62 75.9417C51.6901 75.453 50.5425 75.8254 50.0616 76.7726C49.5806 77.7198 49.947 78.8836 50.8792 79.3723C54.1637 81.0923 57.8673 82 61.5871 82C74.4962 82 85 71.3289 85 58.209C84.9977 52.6535 83.0989 47.5469 79.9427 43.4906L83.9143 38.6829Z" fill="#7E12F1"/>
<path d="M66.4647 58.4693C72.9253 50.7839 73.3111 48.5625 72.8744 48.1258C72.4352 47.689 70.2162 48.0727 62.5308 54.5355C58.874 57.6097 60.0251 59.3734 60.8249 60.1731C61.627 60.9752 63.3906 62.1263 66.4649 58.4696L66.4647 58.4693Z" fill="#7E12F1"/>
<path d="M50.9999 56C50.9999 54.8945 50.251 54 49.3255 54H29.6744C28.7489 54 28 54.8973 28 56C28 57.1055 28.7489 58 29.6744 58H49.3279C50.2535 58 51 57.1055 51 56H50.9999Z" fill="#7E12F1"/>
</svg>
