<svg width="116" height="106" viewBox="0 0 116 106" fill="none" xmlns="http://www.w3.org/2000/svg">
<path d="M58 0C90.0325 0 116 25.9675 116 58C116 66.7409 114.065 75.0296 110.603 82.4629C96.9572 85.2208 80.3124 89.9637 69.2705 97.8408C55.5133 107.655 34.3779 105.433 20.8213 102.518C8.09545 91.8782 0 75.8848 0 58C0 25.9675 25.9675 0 58 0Z" fill="#E6E4FF"/>
<path d="M58.5 29.1615L65.7615 43.8725L82 46.246L70.25 57.6905L73.023 73.8585L58.5 66.221L43.977 73.8585L46.75 57.6905L35 46.246L51.2385 43.8725L58.5 29.1615Z" stroke="#7F56D9" stroke-width="4.7" stroke-linecap="round" stroke-linejoin="round"/>
<mask id="mask0_64_22666" style="mask-type:luminance" maskUnits="userSpaceOnUse" x="-5" y="0" width="116" height="105">
<path d="M53 0C85.0325 0 111 25.9675 111 58C111 61.0795 110.76 64.1028 110.297 67.0524C108.723 77.0935 99.6573 83.4324 89.9131 86.3223C80.5746 89.092 71.2903 92.833 64.2705 97.8408C52.9332 105.929 36.5851 105.842 23.5973 103.93C18.459 103.173 13.6141 100.889 10.1161 97.0504C0.72573 86.7444 -5 73.041 -5 58C-5 25.9675 20.9675 0 53 0Z" fill="white"/>
</mask>
<g mask="url(#mask0_64_22666)">
</g>
</svg>
